<?xml version="1.0" encoding="utf-8"?>
<!-- Generator: Adobe Illustrator 25.3.1, SVG Export Plug-In . SVG Version: 6.00 Build 0)  -->
<svg version="1.1" id="Layer_1" xmlns="http://www.w3.org/2000/svg" xmlns:xlink="http://www.w3.org/1999/xlink" x="0px" y="0px"
	 viewBox="0 0 228.16 51.18" style="enable-background:new 0 0 228.16 51.18;" xml:space="preserve">
<style type="text/css">
	.st0{fill:#63DC3E;}
	.st1{fill:#292929;}
</style>
<g>
	<g>
		<path class="st0" d="M5.25,29.32v-7.61c0-3.97,2.19-6.11,5.86-6.11c3.56,0,5.59,2.14,5.71,6.03h-3.36
			c-0.08-1.94-0.82-2.76-2.36-2.76c-1.53,0-2.38,0.85-2.38,2.85v7.61c0,2,0.88,2.86,2.44,2.86c1.62,0,2.49-0.85,2.49-2.79v-1.86
			h-2.66v-2.98h5.94v4.82c-0.08,3.89-2.22,6.04-5.83,6.04C7.5,35.42,5.25,33.26,5.25,29.32L5.25,29.32z M27.58,31.62H23.1
			l-0.77,3.49h-3.49l4.71-19.15h3.61l4.71,19.12h-3.49C28.36,35.08,27.58,31.62,27.58,31.62z M26.9,28.42l-0.77-3.56
			c-0.27-1.31-0.58-3.42-0.77-4.71h-0.08c-0.16,1.28-0.47,3.39-0.74,4.71l-0.77,3.56C23.78,28.42,26.9,28.42,26.9,28.42z
			 M50.25,15.94v19.14h-3.31V29.1c0.08-2.24,0.16-4.44,0.27-6.59l-0.14-0.05c-0.55,1.59-1.18,3.31-1.78,5.03l-1.29,3.39h-3.34
			l-1.28-3.39c-0.6-1.72-1.21-3.45-1.78-5.03l-0.14,0.05c0.11,2.16,0.19,4.35,0.27,6.59v5.98h-3.29V15.94h3.4l3.12,7.5
			c0.41,1.01,1.07,2.76,1.31,3.56h0.1c0.25-0.79,0.93-2.54,1.34-3.56l3.1-7.5C46.83,15.94,50.25,15.94,50.25,15.94z M61.62,31.62
			h-4.49l-0.77,3.46h-3.49l4.71-19.15h3.61l4.7,19.15h-3.49C62.39,35.08,61.62,31.62,61.62,31.62z M60.94,28.42l-0.77-3.56
			c-0.27-1.31-0.57-3.42-0.77-4.71h-0.08c-0.16,1.28-0.47,3.39-0.74,4.71l-0.76,3.56L60.94,28.42L60.94,28.42z"/>
	</g>
	<g>
		<path class="st1" d="M133.37,31.15h-5.56l-1.01,4.16h-2.35l4.92-19.15h2.44l4.93,19.15h-2.35
			C134.38,35.31,133.37,31.15,133.37,31.15z M132.88,29.07l-1.56-6.48c-0.27-1.19-0.5-2.38-0.69-3.58h-0.08
			c-0.18,1.2-0.41,2.4-0.69,3.58l-1.56,6.48C128.3,29.07,132.88,29.07,132.88,29.07z M138.77,29.78v-8.1c0-3.78,2.14-5.88,5.34-5.88
			c3.28,0,5.31,2.02,5.51,5.71h-2.22c-0.16-2.46-1.31-3.61-3.32-3.61c-1.83,0-3.06,1.2-3.06,3.77v8.11c0,2.54,1.28,3.75,3.15,3.75
			c2.03,0,3.15-1.18,3.37-3.58h2.22c-0.22,3.64-2.24,5.69-5.59,5.69C140.93,35.64,138.76,33.56,138.77,29.78L138.77,29.78z
			 M159.91,31.15h-5.56l-1.01,4.16h-2.35l4.93-19.15h2.44l4.93,19.15h-2.35L159.91,31.15L159.91,31.15z M159.41,29.07l-1.56-6.48
			c-0.27-1.19-0.5-2.38-0.69-3.58h-0.08c-0.18,1.2-0.41,2.4-0.69,3.58l-1.56,6.48L159.41,29.07L159.41,29.07z M166.19,16.16h4.55
			c3.67,0,5.81,2.13,5.81,5.8v7.55c0,3.67-2.16,5.8-5.78,5.8h-4.57V16.16z M170.77,33.18c2.24,0,3.53-1.27,3.53-3.75v-7.41
			c0-2.46-1.27-3.72-3.53-3.72h-2.32v14.89L170.77,33.18L170.77,33.18z M190.19,33.2v2.11h-9.47V16.16h9.17v2.08h-6.93v6.32h6.44
			v2.05h-6.44v6.59L190.19,33.2z M208.29,16.16v19.15h-2.22v-8.79c0.03-2.08,0.08-3.94,0.19-5.8l-0.11-0.03
			c-0.52,1.45-1.23,3.23-1.9,5.03l-2,5.17h-2.22L198,25.72c-0.66-1.8-1.4-3.58-1.9-5.03l-0.14,0.03c0.11,1.86,0.19,3.72,0.19,5.8
			v8.78h-2.22V16.16h2.36l3.31,8.01c0.47,1.15,1.15,3.03,1.45,4.02h0.11c0.32-0.98,1.01-2.87,1.48-4.02l3.32-8.01L208.29,16.16
			L208.29,16.16z M215.82,28.74l-4.71-12.58h2.35l2.44,6.87c0.32,0.9,0.71,2,1.04,2.98h0.04c0.32-0.99,0.71-2.11,1.04-3.03
			l2.44-6.81h2.35l-4.75,12.58v6.56h-2.24C215.82,35.3,215.82,28.74,215.82,28.74z"/>
	</g>
	<g>
		<path class="st0" d="M88.1,29.16h-4.31v-9.38l4.31-0.77V29.16z M94.28,29.16h-4.31V17.73l4.31-0.81V29.16z M96.15,15.87h4.31
			v13.29h-4.31V15.87z M106.65,29.16h-4.31V17.72l4.31,0.77V29.16z M96.16,31.05h10.49v4.3H96.16V31.05z"/>
	</g>
	<path class="st0" d="M95.22,49.77c-13.35,0-24.18-10.81-24.18-24.16S81.86,1.45,95.22,1.45c13.35,0,24.18,10.81,24.18,24.16
		C119.38,38.95,108.57,49.76,95.22,49.77z M95.22,6.21c-10.73,0-19.42,8.69-19.42,19.4s8.69,19.4,19.42,19.4
		c10.73,0,19.42-8.69,19.42-19.4C114.62,14.91,105.94,6.23,95.22,6.21C95.22,6.22,95.22,6.21,95.22,6.21z"/>
</g>
</svg>
