<?xml version="1.0" encoding="utf-8"?>
<!-- Generator: Adobe Illustrator 25.3.1, SVG Export Plug-In . SVG Version: 6.00 Build 0)  -->
<svg version="1.1" id="Layer_1" xmlns="http://www.w3.org/2000/svg" xmlns:xlink="http://www.w3.org/1999/xlink" x="0px" y="0px"
	 viewBox="0 0 500 500" style="enable-background:new 0 0 500 500;" xml:space="preserve">
<style type="text/css">
	.st0{fill:#5F26EE;}
</style>
<path class="st0" d="M460.76,494.99c-9.1-2.04-18.19-4.17-27.32-6.1c-14.78-3.12-29.66-5.83-44.36-9.27
	c-9.65-2.26-18.99-0.55-28.44,0.56c-11.54,1.35-23.09,2.62-34.58,4.32c-11.01,1.63-21.51-0.47-32.04-3.22
	c-11.23-2.93-22.52-5.62-33.75-8.54c-7.1-1.85-14.11-1.77-21.24-0.14c-14.57,3.34-29.28,6.1-43.74,9.85
	c-14.8,3.84-28.99,1.37-43.32-2.13c-12.35-3.02-24.72-6.19-37.26-8.1c-6.37-0.97-13.42-0.31-19.67,1.41
	c-16.54,4.54-32.78,10.17-49.21,15.16c-15.31,4.65-29.41-3.81-31.94-18.97c-1.02-6.1,0.65-11.64,3.73-16.88
	c10.08-17.14,19.96-34.4,30.29-51.38c3.47-5.71,4.28-11.42,3.38-17.78c-1.28-9.13-2.56-18.28-3.49-27.45
	c-1.05-10.38,1.03-20.27,5.82-29.55c2.91-5.65,5.59-11.46,8.92-16.86c7.09-11.47,8.22-23.6,6.21-36.72
	c-1.46-9.5-2.12-19.32-1.5-28.89c0.43-6.62,3.6-13.08,5.69-19.56c1.07-3.31,2.47-6.52,3.9-10.24c-5.52-2.35-10.86-4.67-16.24-6.9
	c-14.09-5.83-22.3-16.32-25.13-31.23c-7.31-38.42-14.67-76.84-22.05-115.25c-0.78-4.03-2.45-7.97-2.69-12.01
	c-0.52-8.78,3.3-15.83,10.61-20.62c5.31-3.48,10.86-6.65,16.54-9.5c9.05-4.55,20.02-2.96,26.83,4.37c2.74,2.95,5.02,7.16,5.68,11.1
	c5.82,34.82,11.27,69.7,16.75,104.58c1.18,7.53,3.93,14.02,11.3,18.82c1.04-43.73,16.35-81.03,48.07-110.79
	C178.34,17.23,216.5,3.63,259.95,6.24c39.68,2.39,73.46,18.5,100.7,47.44c27.22,28.92,40.6,63.68,41.24,104.08
	c6.69-3.97,9.89-9.55,10.99-16.29c4.23-25.74,8.3-51.5,12.41-77.25c1.68-10.52,3.24-21.06,4.98-31.57
	c1.86-11.29,17.08-19.47,29.22-14.64c8.02,3.19,15.75,7.79,22.59,13.06c7.39,5.7,9.02,14.29,7.14,23.38
	c-3.75,18.2-7.64,36.38-11.25,54.6c-4.54,22.93-8.78,45.91-13.31,68.84c-2.68,13.6-10.55,23.27-23.15,29
	c-5.77,2.62-11.66,4.98-17.79,7.58c1.56,4.11,2.79,8.05,4.5,11.77c6.27,13.69,7.04,27.88,4.41,42.49
	c-0.82,4.53-1.19,9.15-1.67,13.74c-0.83,7.98,0.72,15.52,4.48,22.59c2.91,5.48,5.68,11.04,8.83,16.38
	c8.13,13.79,10.23,28.44,7.55,44.14c-1.47,8.59-2.07,17.36-2.59,26.08c-0.15,2.49,0.89,5.34,2.17,7.57
	c10.58,18.32,20.7,36.95,32.24,54.65c10.61,16.27,6.41,34.89-13.34,41.11C467.13,494.99,463.95,494.99,460.76,494.99z M250.23,22.63
	c-8.67,1.07-17.4,1.82-26.01,3.27c-55.72,9.41-102.75,59.91-108.54,116.1c-0.98,9.55-0.76,19.15-4.67,28.5
	c-8.29,19.78-15.07,40.19-23.33,59.99c-5.05,12.11-6.5,24.11-3.77,36.8c4.09,19.05,1.59,36.96-9.11,53.55
	c-2.75,4.26-4.86,8.94-7.14,13.48c-3.37,6.69-4.91,13.81-4.07,21.27c0.87,7.74,2.08,15.45,3.14,23.17
	c1.56,11.44,0.79,22.07-5.89,32.41c-10.35,16.02-19.44,32.85-29.14,49.29c-2.09,3.55-3.19,7.05-0.44,10.63
	c2.9,3.78,6.71,3.48,10.81,2.18c15.15-4.8,30.4-9.3,45.5-14.28c11.17-3.69,22.37-4.65,33.84-2.05c11.79,2.67,23.57,5.34,35.35,8.06
	c10.86,2.51,21.61,5.16,32.95,2.29c12.02-3.05,24.31-5.03,36.28-8.23c15.79-4.23,31.22-4.72,46.98,0.31
	c10.73,3.42,21.8,5.89,32.84,8.23c5.21,1.11,10.77,1.69,16.05,1.19c14.09-1.33,28.09-3.66,42.18-5.02
	c7.85-0.76,16.04-1.66,23.68-0.3c24.57,4.37,48.97,9.74,73.42,14.8c4.08,0.84,7.99,1.35,10.86-2.49c3.02-4.04,1.25-7.74-0.95-11.47
	c-10.75-18.22-21.13-36.67-32.29-54.64c-5.03-8.1-6.31-16.46-5.53-25.51c0.27-3.17,0.5-6.38,1.23-9.46
	c4.67-19.68,2.5-38.01-9.21-55.08c-10.48-15.27-12.5-32.35-8.79-50.29c2.88-13.94,1.44-27.21-4.24-40.53
	c-7.85-18.41-14.28-37.42-21.68-56.03c-3.04-7.64-5.19-15.28-5.17-23.54c0.01-3-0.48-6.02-0.89-9.01
	C375.48,73.45,317.9,23.26,250.23,22.63z M82.57,199.46c3.36-8.78,6.66-17.38,10.01-26.13c-12.01-7.13-18.84-17.19-20.95-30.68
	c-5.39-34.56-11.01-69.09-16.6-103.62c-0.95-5.89-5.45-8.18-10.77-5.42c-4.79,2.49-9.44,5.28-14.04,8.12
	c-3.42,2.11-4.15,5.36-3.32,9.16c2.58,11.94,5.28,23.87,7.62,35.86c5.62,28.87,11.08,57.76,16.58,86.65
	c1.85,9.71,7.25,16.36,16.55,19.89C72.41,195.1,77.06,197.17,82.57,199.46z M417.96,199.46c5.83-2.43,11.26-4.62,16.64-6.93
	c8.08-3.47,12.92-9.67,14.58-18.21c4.88-25.13,9.54-50.3,14.48-75.42c3.19-16.2,6.93-32.3,9.9-48.54c0.46-2.53-1.06-6.59-3.07-8.16
	c-4.58-3.59-9.9-6.35-15.17-8.92c-4.52-2.21-9.04,0.25-9.77,4.84c-5.47,34.24-11.02,68.46-16.29,102.73
	c-2,12.95-7.44,23.54-18.62,30.81c-0.89,0.58-1.69,1.3-2.6,2C411.36,182.29,414.59,190.71,417.96,199.46z"/>
<path class="st0" d="M489.51,294.4c0.02,13.36-10.55,23.93-23.91,23.91c-13.28-0.02-23.98-10.78-23.89-24.02
	c0.09-12.97,10.79-23.66,23.76-23.75C478.75,270.44,489.49,281.11,489.51,294.4z M465.82,286.63c-4.49-0.08-7.92,3.21-8,7.67
	c-0.08,4.48,3.22,7.92,7.68,8.01c4.46,0.09,7.93-3.24,8.01-7.68C473.6,290.16,470.27,286.7,465.82,286.63z"/>
<path class="st0" d="M58.67,238.57C58.7,251.9,48,262.67,34.8,262.62c-13.11-0.05-24.04-11.08-23.93-24.14
	c0.11-13.06,10.67-23.56,23.78-23.65C48.08,214.74,58.65,225.19,58.67,238.57z M35.01,230.66c-4.21-0.09-7.93,3.46-8.07,7.71
	c-0.14,4.3,3.23,7.98,7.51,8.2c4.42,0.23,8.33-3.46,8.36-7.89C42.84,234.46,39.22,230.75,35.01,230.66z"/>
<path class="st0" d="M489.51,238.6c0.02,13.29-10.72,24.07-23.92,24.02c-13.11-0.05-23.97-11.04-23.88-24.16
	c0.1-13.04,10.68-23.55,23.78-23.62C478.9,214.76,489.5,225.24,489.51,238.6z M473.52,238.58c-0.02-4.34-3.5-7.87-7.8-7.91
	c-4.26-0.04-7.84,3.48-7.92,7.79c-0.09,4.57,3.51,8.21,8.02,8.11C470.15,246.48,473.54,242.95,473.52,238.58z"/>
<path class="st0" d="M58.67,294.46c0,13.37-10.56,23.89-23.94,23.85c-13.24-0.04-24.02-10.93-23.85-24.09
	c0.17-12.96,10.9-23.63,23.85-23.69C47.97,270.46,58.67,281.15,58.67,294.46z M34.22,302.29c4.39,0.32,8.08-2.74,8.53-7.08
	c0.44-4.23-2.79-8.14-7.05-8.55c-4.6-0.44-8.48,2.79-8.76,7.3C26.66,298.29,29.88,301.97,34.22,302.29z"/>
<path class="st0" d="M465.82,286.63c4.46,0.08,7.78,3.53,7.7,8c-0.08,4.45-3.55,7.77-8.01,7.68c-4.47-0.09-7.77-3.53-7.68-8.01
	C457.89,289.84,461.33,286.55,465.82,286.63z"/>
<path class="st0" d="M35.01,230.66c4.21,0.09,7.83,3.81,7.8,8.02c-0.03,4.43-3.94,8.12-8.36,7.89c-4.28-0.22-7.66-3.9-7.51-8.2
	C27.08,234.12,30.8,230.57,35.01,230.66z"/>
<path class="st0" d="M473.52,238.58c0.02,4.37-3.38,7.9-7.69,7.99c-4.51,0.1-8.11-3.54-8.02-8.11c0.08-4.31,3.65-7.82,7.92-7.79
	C470.02,230.71,473.5,234.24,473.52,238.58z"/>
<path class="st0" d="M34.22,302.29c-4.34-0.32-7.56-4-7.28-8.33c0.29-4.51,4.16-7.74,8.76-7.3c4.26,0.41,7.49,4.32,7.05,8.55
	C42.3,299.55,38.62,302.61,34.22,302.29z"/>
<path class="st0" d="M338.03,143.01c-0.04,48.47-39.49,87.73-87.97,87.56c-48.67-0.17-87.59-39.31-87.49-87.96
	c0.11-48.34,39.18-87.28,87.63-87.33C298.67,55.24,338.07,94.59,338.03,143.01z M322.1,143.18c0.16-39.47-31.87-71.78-71.46-72.09
	c-39.62-0.31-72.07,32-72.11,71.79c-0.03,39.61,31.99,71.77,71.55,71.86C289.53,214.83,321.95,182.62,322.1,143.18z"/>
<path class="st0" d="M285.44,314.36c-4.61-0.62-12.68-1.53-20.68-2.84c-15.23-2.48-30.1,0.46-45.1,2.32
	c-18.69,2.32-34.97-3.11-48.13-16.79c-10.53-10.95-11.37-20.69-3.3-33.53c9.23-14.67,24.92-21.2,42-17.33
	c9.11,2.06,17.59,2.21,26.04-3.31c9.14-5.98,19.38-5.69,28.48,0.15c8,5.13,15.99,5.3,24.65,3.28c19.35-4.51,38,4.91,46.3,23.07
	c3.44,7.53,2.5,14.46-1.78,21.28C325.14,304.68,306.33,314.64,285.44,314.36z M298.19,297.23c10.48-2.45,17.99-8.05,22.85-17.06
	c0.6-1.12,0.35-3.1-0.21-4.37c-4.84-11.1-15.76-16.73-27.62-13.95c-12.56,2.95-24.51,2.91-35.69-4.69
	c-4.2-2.85-9.09-3.47-13.48-0.44c-11.71,8.11-24.32,7.94-37.52,5.03c-11.25-2.48-21.07,2.63-26.49,12.93
	c-1.44,2.74-1.3,4.96,0.4,7.48c6.77,10.09,16.15,16.22,28.29,15.81c13.75-0.47,27.45-2.39,41.62-3.72c0-4.92-0.04-9.5,0.01-14.08
	c0.07-6.79,2.81-9.61,9.52-9.66c9.55-0.06,19.1-0.06,28.64,0c6.66,0.04,9.58,2.97,9.67,9.65
	C298.25,285.72,298.19,291.27,298.19,297.23z M266.17,286.82c0,2.48-0.33,4.45,0.12,6.23c0.3,1.18,1.56,2.78,2.63,2.99
	c4.17,0.83,8.43,1.18,12.86,1.74c0-3.84,0-7.37,0-10.96C276.54,286.82,271.66,286.82,266.17,286.82z"/>
<path class="st0" d="M266.17,286.82c5.49,0,10.37,0,15.6,0c0,3.59,0,7.13,0,10.96c-4.42-0.56-8.69-0.91-12.86-1.74
	c-1.07-0.21-2.34-1.81-2.63-2.99C265.84,291.27,266.17,289.3,266.17,286.82z"/>
<path class="st0" d="M282.11,142.94c-0.01,17.6-14.33,31.94-31.87,31.91c-17.49-0.03-31.96-14.51-31.94-31.95
	c0.02-17.48,14.5-31.91,31.98-31.89C267.87,111.03,282.12,125.33,282.11,142.94z M250.32,127.07c-8.98-0.03-16.1,7.09-16.01,16.01
	c0.08,8.71,7.11,15.68,15.85,15.71c8.99,0.03,16.02-7.04,15.94-16.03C266.03,133.96,259.12,127.09,250.32,127.07z"/>
<path class="st0" d="M250.32,127.07c8.8,0.02,15.71,6.89,15.78,15.69c0.08,8.99-6.96,16.06-15.94,16.03
	c-8.74-0.03-15.77-7-15.85-15.71C234.23,134.16,241.35,127.04,250.32,127.07z"/>
</svg>
